<svg width="50" height="40" viewBox="0 0 50 40" fill="none" xmlns="http://www.w3.org/2000/svg">
<g clip-path="url(#clip0_665_5313)">
<path fill-rule="evenodd" clip-rule="evenodd" d="M25.0202 0C11.5584 0 0.675781 9.01388 0.675781 20.1653C0.675781 29.0792 7.64864 36.6246 17.3218 39.2952C18.5312 39.4959 18.9742 38.8613 18.9742 38.3274C18.9742 37.8599 18.9344 36.2575 18.9344 34.5879C12.1623 35.79 10.7521 32.1841 10.7521 32.1841C9.66381 29.847 8.05127 29.2463 8.05127 29.2463C5.83479 28.011 8.21273 28.011 8.21273 28.011C10.6714 28.1446 11.9615 30.081 11.9615 30.081C14.1376 33.1522 17.6442 32.2844 19.055 31.7502C19.2563 30.4481 19.9016 29.5467 20.5868 29.046C15.1856 28.5785 9.50285 26.8425 9.50285 19.0967C9.50285 16.8932 10.4696 15.0905 12.0014 13.6884C11.7597 13.1877 10.9131 11.1174 12.2436 8.34644C12.2436 8.34644 14.2991 7.81217 18.9339 10.4164C20.9182 9.97495 22.9646 9.7504 25.0202 9.74851C27.0758 9.74851 29.1712 9.98246 31.1061 10.4164C35.7414 7.81217 37.7969 8.34644 37.7969 8.34644C39.1274 11.1174 38.2803 13.1877 38.0386 13.6884C39.6108 15.0905 40.5376 16.8932 40.5376 19.0967C40.5376 26.8425 34.8549 28.5449 29.4133 29.046C30.3003 29.6802 31.0657 30.882 31.0657 32.7851C31.0657 35.4893 31.0259 37.6596 31.0259 38.327C31.0259 38.8613 31.4694 39.4959 32.6783 39.2956C42.3515 36.6242 49.3243 29.0792 49.3243 20.1653C49.3642 9.01388 38.4417 0 25.0202 0Z" fill="#24292F"/>
</g>
<defs>
<clipPath id="clip0_665_5313">
<rect width="48.6487" height="40" fill="white" transform="translate(0.675781)"/>
</clipPath>
</defs>
</svg>
