<svg width="41" height="40" viewBox="0 0 41 40" fill="none" xmlns="http://www.w3.org/2000/svg">
<path d="M20.3259 0C14.8942 0 14.2125 0.0237504 12.0792 0.120834C9.94998 0.218334 8.49663 0.555417 7.22495 1.05C5.90952 1.56083 4.79368 2.24417 3.682 3.35625C2.56949 4.46792 1.88615 5.58375 1.37364 6.89875C0.877802 8.17083 0.540299 9.62458 0.444464 11.7529C0.349463 13.8863 0.324463 14.5683 0.324463 20C0.324463 25.4317 0.34863 26.1112 0.445298 28.2446C0.543216 30.3738 0.880302 31.8271 1.37447 33.0988C1.88573 34.4142 2.56907 35.53 3.68116 36.6417C4.79243 37.7542 5.90827 38.4392 7.22287 38.95C8.49538 39.4446 9.94915 39.7817 12.0779 39.8792C14.2113 39.9762 14.8925 40 20.3238 40C25.756 40 26.4356 39.9762 28.5689 39.8792C30.6981 39.7817 32.1531 39.4446 33.4256 38.95C34.7407 38.4392 35.8548 37.7542 36.9661 36.6417C38.0786 35.53 38.7619 34.4142 39.2745 33.0992C39.7661 31.8271 40.1036 30.3733 40.2036 28.245C40.2995 26.1117 40.3245 25.4317 40.3245 20C40.3245 14.5683 40.2995 13.8867 40.2036 11.7533C40.1036 9.62417 39.7661 8.17083 39.2745 6.89917C38.7619 5.58375 38.0786 4.46792 36.9661 3.35625C35.8536 2.24375 34.7411 1.56042 33.4244 1.05C32.1494 0.555417 30.6952 0.218334 28.566 0.120834C26.4327 0.0237504 25.7535 0 20.3201 0H20.3259ZM18.5317 3.60417C19.0642 3.60333 19.6584 3.60417 20.3259 3.60417C25.666 3.60417 26.2989 3.62333 28.4077 3.71917C30.3577 3.80833 31.416 4.13417 32.121 4.40792C33.0544 4.77042 33.7198 5.20375 34.4194 5.90375C35.1194 6.60375 35.5527 7.27042 35.9161 8.20375C36.1898 8.90792 36.5161 9.96625 36.6048 11.9162C36.7007 14.0246 36.7215 14.6579 36.7215 19.9954C36.7215 25.3329 36.7007 25.9663 36.6048 28.0746C36.5157 30.0246 36.1898 31.0829 35.9161 31.7871C35.5536 32.7204 35.1194 33.385 34.4194 34.0846C33.7194 34.7846 33.0548 35.2179 32.121 35.5804C31.4169 35.8554 30.3577 36.1804 28.4077 36.2696C26.2993 36.3654 25.666 36.3862 20.3259 36.3862C14.9854 36.3862 14.3525 36.3654 12.2442 36.2696C10.2941 36.1796 9.23581 35.8537 8.53038 35.58C7.59704 35.2175 6.93037 34.7842 6.23036 34.0842C5.53035 33.3842 5.09701 32.7192 4.73368 31.7854C4.45992 31.0813 4.13367 30.0229 4.04492 28.0729C3.94908 25.9646 3.92992 25.3313 3.92992 19.9904C3.92992 14.6496 3.94908 14.0196 4.04492 11.9113C4.13409 9.96125 4.45992 8.90292 4.73368 8.19792C5.09618 7.26458 5.53035 6.59792 6.23036 5.89792C6.93037 5.19792 7.59704 4.76458 8.53038 4.40125C9.23539 4.12625 10.2941 3.80125 12.2442 3.71167C14.0892 3.62833 14.8042 3.60333 18.5317 3.59917V3.60417Z" fill="#2D2D2D"/>
<path d="M30.9589 6.87587C30.4841 6.87587 30.0201 7.01665 29.6254 7.2804C29.2307 7.54415 28.9231 7.91903 28.7414 8.35762C28.5598 8.79621 28.5123 9.27882 28.605 9.74439C28.6977 10.21 28.9263 10.6376 29.2621 10.9732C29.5978 11.3088 30.0255 11.5373 30.4911 11.6299C30.9568 11.7224 31.4394 11.6747 31.8779 11.4929C32.3164 11.3112 32.6912 11.0034 32.9548 10.6086C33.2184 10.2138 33.359 9.74975 33.3589 9.27504C33.3589 7.95004 32.2839 6.87587 30.9589 6.87587Z" fill="#2D2D2D"/>
<path fill-rule="evenodd" clip-rule="evenodd" d="M20.2829 9.68004C14.6108 9.68004 10.012 14.2788 10.012 19.9509C10.012 25.623 14.6108 30.2196 20.2829 30.2196C25.9551 30.2196 30.5526 25.623 30.5526 19.9509C30.5526 14.2788 25.9551 9.68004 20.2829 9.68004ZM20.3245 26.5625C23.9488 26.5625 26.887 23.6244 26.887 20C26.887 16.3757 23.9488 13.4375 20.3245 13.4375C16.7001 13.4375 13.762 16.3757 13.762 20C13.762 23.6244 16.7001 26.5625 20.3245 26.5625Z" fill="#2D2D2D"/>
</svg>
