<svg width="41" height="40" viewBox="0 0 41 40" fill="none" xmlns="http://www.w3.org/2000/svg">
<path fill-rule="evenodd" clip-rule="evenodd" d="M6.98024 0C3.30435 0 0.324463 2.98477 0.324463 6.66667V33.3333C0.324463 37.0152 3.30436 40 6.98024 40H32.8354C36.5112 40 39.4911 37.0152 39.4911 33.3333V6.66667C39.4911 2.98477 36.5112 0 32.8354 0H6.98024ZM5.69983 8.948C5.69983 10.9592 7.22216 12.4289 9.1 12.4289C10.9781 12.4289 12.5004 10.9592 12.5004 8.948C12.5004 6.93711 10.9781 5.4657 9.1 5.4657C7.22216 5.4657 5.69983 6.93711 5.69983 8.948ZM27.8943 34.3771H33.7921V22.4627C33.7921 16.5784 30.2358 14.5715 26.9449 14.5715C23.9018 14.5715 21.8347 16.5961 21.2639 17.7821V15.1129H15.592V34.3771H21.4898V23.9327C21.4898 21.1478 23.2053 19.7935 24.9553 19.7935C26.6106 19.7935 27.8943 20.7509 27.8943 23.8554V34.3771ZM12.0488 15.0981V34.3622H6.15124V15.0981H12.0488Z" fill="#2D2D2D"/>
</svg>
