<svg width="41" height="40" viewBox="0 0 41 40" fill="none" xmlns="http://www.w3.org/2000/svg">
<path fill-rule="evenodd" clip-rule="evenodd" d="M40.3245 20C40.3245 31.0457 31.3701 40 20.3245 40C9.2788 40 0.324463 31.0457 0.324463 20C0.324463 8.95433 9.2788 0 20.3245 0C31.3701 0 40.3245 8.95433 40.3245 20ZM13.7174 18.1679C11.7139 19.0427 9.65538 19.9415 7.77301 20.9783C6.7901 21.698 8.09645 22.2071 9.32205 22.6846C9.51688 22.7605 9.70963 22.8356 9.89088 22.9106C10.0417 22.957 10.195 23.0058 10.3505 23.0553C11.7135 23.4896 13.2334 23.9738 14.5567 23.2454C16.7305 21.9967 18.782 20.553 20.8319 19.1104C21.5035 18.6377 22.1749 18.1653 22.8504 17.6997C22.882 17.6795 22.9177 17.6563 22.9568 17.6311C23.5322 17.258 24.8265 16.4191 24.3477 17.5751C23.2157 18.8131 22.0031 19.9089 20.784 21.0108C19.9624 21.7534 19.1377 22.4988 18.3327 23.2921C17.6316 23.8617 16.9035 25.0073 17.6886 25.8051C19.4969 27.0709 21.3334 28.3061 23.1688 29.5406C23.766 29.9422 24.3633 30.3439 24.9593 30.7466C25.9695 31.5531 27.5482 30.9007 27.7703 29.6404C27.869 29.0607 27.9682 28.481 28.0674 27.9012C28.6154 24.6973 29.1635 21.4923 29.6478 18.2779C29.7136 17.7737 29.7882 17.2695 29.8629 16.7651C30.0438 15.5425 30.225 14.3184 30.2815 13.0892C30.1357 11.8626 28.6484 12.1323 27.8207 12.4082C23.5664 14.027 19.3545 15.7658 15.1594 17.5353C14.6841 17.7458 14.2024 17.9562 13.7174 18.1679Z" fill="#2D2D2D"/>
</svg>
