<svg width="267" height="217" viewBox="0 0 267 217" fill="none" xmlns="http://www.w3.org/2000/svg">
<path d="M148.38 215.7C207.479 215.7 255.391 169.376 255.391 112.033C255.391 54.69 207.268 8.36649 148.38 8.36649C89.2816 8.36649 41.3694 54.69 41.3694 112.033C41.3694 169.376 89.2816 215.7 148.38 215.7Z" fill="#F1F3F9" stroke="#D6DCE8" stroke-width="2" stroke-miterlimit="10"/>
<path d="M248.426 44.0791C253.206 44.0791 257.08 40.3331 257.08 35.7123C257.08 31.0914 253.206 27.3455 248.426 27.3455C243.647 27.3455 239.772 31.0914 239.772 35.7123C239.772 40.3331 243.647 44.0791 248.426 44.0791Z" fill="#F1F3F9"/>
<path d="M261.09 11.4278C264.354 11.4278 267 8.86962 267 5.71391C267 2.5582 264.354 0 261.09 0C257.826 0 255.18 2.5582 255.18 5.71391C255.18 8.86962 257.826 11.4278 261.09 11.4278Z" fill="#F1F3F9"/>
<path d="M47.0681 43.875C50.332 43.875 52.978 41.3168 52.978 38.1611C52.978 35.0054 50.332 32.4471 47.0681 32.4471C43.8041 32.4471 41.1582 35.0054 41.1582 38.1611C41.1582 41.3168 43.8041 43.875 47.0681 43.875Z" fill="#F1F3F9"/>
<path d="M10.9755 154.071C17.0371 154.071 21.951 149.32 21.951 143.46C21.951 137.599 17.0371 132.848 10.9755 132.848C4.91389 132.848 0 137.599 0 143.46C0 149.32 4.91389 154.071 10.9755 154.071Z" fill="#F1F3F9"/>
<path d="M227.53 60.2L229.219 191.62C229.219 196.11 225.419 199.579 220.776 199.579H88.2256C83.5822 199.579 79.783 195.905 79.783 191.62V22.6515C79.783 18.162 83.5822 14.6928 88.2256 14.6928H184.261L227.53 60.2Z" fill="white" stroke="#D6DCE8" stroke-width="2" stroke-miterlimit="10"/>
<path d="M144.37 173.254H139.516C138.46 173.254 137.616 172.234 137.616 171.009C137.616 169.785 138.46 168.764 139.516 168.764H144.37C145.426 168.764 146.27 169.785 146.27 171.009C146.27 172.438 145.426 173.254 144.37 173.254Z" fill="#D6DCE8"/>
<path d="M129.595 173.254H101.312C100.257 173.254 99.4128 172.234 99.4128 171.009C99.4128 169.785 100.257 168.764 101.312 168.764H129.595C130.651 168.764 131.495 169.785 131.495 171.009C131.495 172.438 130.651 173.254 129.595 173.254Z" fill="#D6DCE8"/>
<path d="M165.688 42.2418H102.157C100.679 42.2418 99.4128 41.0174 99.4128 39.589C99.4128 38.1605 100.679 36.9361 102.157 36.9361H165.688C167.165 36.9361 168.432 38.1605 168.432 39.589C168.432 41.0174 167.165 42.2418 165.688 42.2418Z" fill="#D6DCE8"/>
<path d="M126.641 56.9351H102.157C100.679 56.9351 99.4128 55.7107 99.4128 54.2823C99.4128 52.8538 100.679 51.6294 102.157 51.6294H126.429C127.907 51.6294 129.173 52.8538 129.173 54.2823C129.173 55.7107 127.907 56.9351 126.641 56.9351Z" fill="#D6DCE8"/>
<path d="M185.337 14.6928V51.017C185.337 56.1187 189.981 60.2 195.257 60.2H228.606" fill="#D6DCE8"/>
<path d="M237.662 202.64C235.551 202.64 233.44 201.823 231.752 199.987L196.504 165.907L195.237 166.724C183.84 174.886 170.542 179.172 157.034 179.172C140.782 179.172 124.53 172.846 112.499 161.826C99.8348 150.194 92.8696 134.481 92.8696 117.339C92.8696 83.2597 121.575 55.5065 156.823 55.5065C180.885 55.5065 201.991 67.7506 213.389 88.5655C224.576 109.176 223.098 133.256 209.379 152.643L208.534 153.867L243.994 188.151C247.582 191.62 246.738 195.089 246.104 196.926C244.416 200.191 241.039 202.64 237.662 202.64ZM156.823 72.4441C131.073 72.4441 110.388 92.6469 110.388 117.339C110.388 145.501 134.239 162.438 157.456 162.438C171.598 162.438 184.473 156.316 193.549 145.296C204.735 131.828 206.635 113.666 198.825 97.9527C190.805 82.2394 174.764 72.4441 156.823 72.4441Z" fill="#F1F3F9" stroke="#D6DCE8" stroke-width="2" stroke-miterlimit="10"/>
<path d="M136.772 124.686C139.516 124.686 141.837 122.441 141.837 119.788C141.837 117.135 139.516 114.891 136.772 114.891C134.028 114.891 131.706 117.135 131.706 119.788C131.706 122.441 134.028 124.686 136.772 124.686Z" fill="#AAB2C5"/>
<path d="M175.608 124.686C178.351 124.686 180.673 122.441 180.673 119.788C180.673 117.135 178.351 114.891 175.608 114.891C172.864 114.891 170.542 117.135 170.542 119.788C170.542 122.645 172.864 124.686 175.608 124.686Z" fill="#AAB2C5"/>
<path d="M136.574 103.585L125.431 109.402L126.935 112.095L138.078 106.278L136.574 103.585Z" fill="#AAB2C5"/>
<path d="M174.919 103.507L173.416 106.201L184.56 112.017L186.064 109.323L174.919 103.507Z" fill="#AAB2C5"/>
<path d="M156.19 136.114C159.454 136.114 162.1 134.195 162.1 131.828C162.1 129.461 159.454 127.543 156.19 127.543C152.926 127.543 150.281 129.461 150.281 131.828C150.281 134.195 152.926 136.114 156.19 136.114Z" fill="#AAB2C5"/>
</svg>
