<svg width="300" height="301" viewBox="0 0 300 301" fill="none" xmlns="http://www.w3.org/2000/svg">
<path d="M166.72 297.355C233.123 297.355 286.957 233.495 286.957 154.444C286.957 75.3936 232.886 11.5341 166.72 11.5341C100.317 11.5341 46.4824 75.3936 46.4824 154.444C46.4824 233.495 100.317 297.355 166.72 297.355Z" fill="#F1F3F9" stroke="#D6DCE8" stroke-width="2" stroke-miterlimit="10"/>
<path d="M279.131 60.7651C284.501 60.7651 288.854 55.6011 288.854 49.231C288.854 42.8609 284.501 37.6969 279.131 37.6969C273.761 37.6969 269.408 42.8609 269.408 49.231C269.408 55.6011 273.761 60.7651 279.131 60.7651Z" fill="#F1F3F9"/>
<path d="M293.36 15.7539C297.027 15.7539 300 12.2273 300 7.87695C300 3.52663 297.027 0 293.36 0C289.692 0 286.719 3.52663 286.719 7.87695C286.719 12.2273 289.692 15.7539 293.36 15.7539Z" fill="#F1F3F9"/>
<path d="M52.885 60.4838C56.5523 60.4838 59.5253 56.9572 59.5253 52.6068C59.5253 48.2565 56.5523 44.7299 52.885 44.7299C49.2176 44.7299 46.2446 48.2565 46.2446 52.6068C46.2446 56.9572 49.2176 60.4838 52.885 60.4838Z" fill="#F1F3F9"/>
<path d="M12.332 212.396C19.1428 212.396 24.6641 205.847 24.6641 197.768C24.6641 189.688 19.1428 183.139 12.332 183.139C5.52124 183.139 0 189.688 0 197.768C0 205.847 5.52124 212.396 12.332 212.396Z" fill="#F1F3F9"/>
<path d="M201.582 78.4882L237.866 233.214C239.052 238.559 236.444 243.904 231.938 245.311L104.111 285.539C99.6054 286.946 95.0994 283.852 93.9136 278.506L49.3286 78.7696C48.1428 73.4245 50.7515 68.0794 55.2574 66.6728L147.748 37.6969L201.582 78.4882Z" fill="white" stroke="#D6DCE8" stroke-width="2" stroke-miterlimit="10"/>
<path d="M199.685 176.387L130.673 198.049L123.084 200.3L100.08 207.614C99.1313 207.895 98.4198 209.302 98.8941 210.708C99.1313 212.115 100.317 212.959 101.266 212.678L124.27 205.363L131.859 203.113L200.871 181.451C201.819 181.17 202.531 179.763 202.056 178.357C201.819 176.95 200.633 176.106 199.685 176.387Z" fill="#D6DCE8"/>
<path d="M195.179 157.258L169.566 165.135L160.791 167.948L96.0482 188.484C95.0996 188.765 94.3881 190.172 94.8624 191.579C95.0996 192.985 96.2853 193.829 97.2339 193.548L162.214 173.012L170.989 170.198L196.602 162.321C197.55 162.04 198.262 160.634 197.787 159.227C197.313 158.102 196.127 156.976 195.179 157.258Z" fill="#D6DCE8"/>
<path d="M191.384 137.847L184.744 139.816L178.104 141.785L91.5423 169.073C90.5937 169.355 89.8822 170.761 90.3565 172.168C90.5937 173.574 91.7795 174.418 92.7281 174.137L179.29 146.849L186.641 144.598L192.57 142.629C193.519 142.348 194.23 140.941 193.756 139.535C193.519 138.409 192.57 137.565 191.384 137.847Z" fill="#D6DCE8"/>
<path d="M151.304 237.434L146.561 238.84C145.613 239.122 144.427 238.278 144.19 236.871C143.953 235.465 144.427 234.058 145.376 233.777L150.119 232.37C151.067 232.089 152.253 232.933 152.49 234.339C152.727 236.027 152.253 237.153 151.304 237.434Z" fill="#D6DCE8"/>
<path d="M136.839 241.935L109.566 250.374C108.618 250.656 107.432 249.812 107.195 248.405C106.958 246.999 107.432 245.592 108.38 245.311L135.653 236.871C136.602 236.59 137.788 237.434 138.025 238.84C138.499 240.247 138.025 241.654 136.839 241.935Z" fill="#D6DCE8"/>
<path d="M188.064 118.436L166.483 125.187L161.265 126.875L87.5101 149.943C86.5615 150.225 85.85 151.631 86.3243 153.038C86.5615 154.445 87.7472 155.288 88.6959 155.007L162.214 132.22L167.431 130.532L188.775 123.781C189.961 123.499 190.435 122.093 190.198 120.405C190.198 119.28 189.012 118.154 188.064 118.436Z" fill="#D6DCE8"/>
<path d="M137.075 75.9563L75.8893 95.0861C74.4664 95.6487 73.0435 94.5234 72.5692 92.8355C72.0949 91.1476 73.0435 89.4597 74.4664 88.897L135.652 69.7673C137.075 69.2047 138.498 70.3299 138.972 72.0179C139.447 73.7058 138.498 75.3937 137.075 75.9563Z" fill="#D6DCE8"/>
<path d="M103.399 105.214L79.9211 112.528C78.4982 113.091 77.0752 111.965 76.6009 110.277C76.1266 108.589 77.0752 106.902 78.4982 106.339L101.739 99.0246C103.162 98.462 104.585 99.5872 105.059 101.275C105.534 102.963 104.585 104.651 103.399 105.214Z" fill="#D6DCE8"/>
<path d="M147.748 37.6969L157.234 80.4575C158.657 86.3652 164.112 90.0224 169.092 88.3344L201.582 78.4882" fill="#D6DCE8"/>
<path d="M297.392 122.093L275.573 280.757C274.862 286.102 270.356 289.759 265.85 288.634L135.889 261.627C131.383 260.783 128.3 255.438 129.012 250.093L159.13 46.6992C159.842 41.3541 164.348 37.6969 168.854 38.8222L263.241 58.5146L297.392 122.093Z" fill="white" stroke="#D6DCE8" stroke-width="2" stroke-miterlimit="10"/>
<path d="M261.107 210.146L190.909 195.517L183.32 193.829L159.842 189.047C158.893 188.766 157.708 189.891 157.708 191.298C157.47 192.704 158.182 194.111 159.131 194.392L182.609 199.174L190.198 200.862L260.396 215.491C261.344 215.772 262.53 214.647 262.53 213.24C262.767 211.834 262.293 210.427 261.107 210.146Z" fill="#D6DCE8"/>
<path d="M263.954 190.735L237.867 185.39L229.092 183.421L162.926 169.636C161.977 169.355 160.792 170.48 160.792 171.886C160.554 173.293 161.266 174.7 162.214 174.981L228.381 188.766L237.155 190.735L263.242 196.08C264.191 196.361 265.377 195.236 265.377 193.829C265.614 192.423 264.902 191.016 263.954 190.735Z" fill="#D6DCE8"/>
<path d="M267.273 171.042L260.396 169.636L253.519 168.229L165.297 149.943C164.348 149.662 163.163 150.787 163.163 152.194C162.926 153.601 163.637 155.007 164.586 155.289L252.807 173.574L260.396 175.262L266.325 176.388C267.274 176.669 268.459 175.544 268.459 174.137C268.934 172.73 268.459 171.324 267.273 171.042Z" fill="#D6DCE8"/>
<path d="M195.653 241.654L190.91 240.81C189.961 240.528 189.25 239.122 189.487 237.715C189.724 236.309 190.673 235.183 191.621 235.465L196.364 236.309C197.313 236.59 198.024 237.997 197.787 239.403C197.55 241.091 196.602 241.654 195.653 241.654Z" fill="#D6DCE8"/>
<path d="M181.186 238.559L153.439 232.933C152.49 232.651 151.779 231.245 152.016 229.838C152.253 228.432 153.202 227.306 154.151 227.588L181.898 233.214C182.846 233.495 183.558 234.902 183.321 236.308C183.083 237.996 182.135 238.84 181.186 238.559Z" fill="#D6DCE8"/>
<path d="M271.068 151.913L249.012 147.411L243.558 146.286L168.38 130.532C167.431 130.251 166.245 131.376 166.245 132.783C166.008 134.189 166.719 135.596 167.668 135.877L242.846 151.631L248.301 152.757L270.119 157.258C271.305 157.539 272.253 156.414 272.49 155.007C272.728 153.601 272.016 152.194 271.068 151.913Z" fill="#D6DCE8"/>
<path d="M240.001 88.0532L177.629 75.1125C176.206 74.8312 175.258 73.1433 175.495 71.4554C175.732 69.7674 177.155 68.6422 178.578 68.9235L240.949 81.8642C242.372 82.1455 243.321 83.8334 243.084 85.5213C242.847 86.9279 241.424 88.3345 240.001 88.0532Z" fill="#D6DCE8"/>
<path d="M198.973 97.6179L175.021 92.5541C173.598 92.2728 172.649 90.5849 172.886 88.897C173.124 87.2091 174.546 86.0838 175.969 86.3651L199.685 91.4289C201.108 91.7102 202.056 93.3981 201.819 95.086C201.582 96.7739 200.159 97.8992 198.973 97.6179Z" fill="#D6DCE8"/>
<path d="M263.005 58.5146L256.602 102.119C255.653 108.308 259.448 114.216 264.665 115.341L297.392 122.093" fill="#D6DCE8"/>
<path d="M207.985 265.847C237.192 265.847 260.87 237.76 260.87 203.113C260.87 168.466 237.192 140.379 207.985 140.379C178.777 140.379 155.099 168.466 155.099 203.113C155.099 237.76 178.777 265.847 207.985 265.847Z" fill="white"/>
<path d="M284.683 300C282.63 300 280.577 299.026 278.935 296.834L244.654 256.169L243.422 257.143C232.337 266.883 219.404 271.997 206.267 271.997C190.46 271.997 174.654 264.448 162.953 251.298C150.636 237.419 143.862 218.668 143.862 198.214C143.862 157.548 171.78 124.431 206.061 124.431C229.463 124.431 249.991 139.041 261.076 163.879C271.956 188.474 270.519 217.207 257.176 240.341L256.355 241.802L290.841 282.711C294.331 286.851 293.51 290.99 292.894 293.182C291.252 297.078 287.967 300 284.683 300ZM206.061 144.642C181.017 144.642 160.9 168.749 160.9 198.214C160.9 231.818 184.096 252.029 206.677 252.029C220.431 252.029 232.953 244.724 241.78 231.574C252.66 215.503 254.507 193.831 246.912 175.081C239.111 156.331 223.51 144.642 206.061 144.642Z" fill="#D6DCE8" stroke="#AAB2C5" stroke-width="2" stroke-miterlimit="10"/>
<path d="M203.004 213.24C202.767 212.115 202.767 210.99 202.767 209.583C202.767 204.801 204.427 200.581 208.696 196.924L212.253 193.829C214.387 191.86 215.336 189.609 215.336 186.796C215.336 182.858 212.964 178.919 207.984 178.919C202.767 178.919 200.395 183.983 200.395 188.765C200.395 189.891 200.395 190.735 200.632 191.579L191.146 191.297C190.909 190.172 190.672 188.765 190.672 187.359C190.672 177.794 196.601 168.792 207.747 168.792C219.13 168.792 225.296 177.513 225.296 186.234C225.296 193.267 222.213 198.049 217.945 201.706L214.862 204.238C212.253 206.489 210.83 209.302 210.83 212.678V213.24H203.004ZM207.036 218.867C210.356 218.867 212.964 221.961 212.964 225.9C212.964 229.838 210.356 232.933 207.036 232.933C203.715 232.933 201.107 229.838 201.107 225.9C201.344 222.242 203.715 218.867 207.036 218.867Z" fill="#B2C0D1"/>
</svg>
