<svg width="31" height="32" viewBox="0 0 31 32" fill="none" xmlns="http://www.w3.org/2000/svg">
<g id="Frame" clip-path="url(#clip0_334_273)" filter="url(#filter0_d_334_273)">
<path id="Vector" d="M13.4999 4.58334L13.8374 4.58439L14.1687 4.58855L14.8103 4.60626L15.1218 4.6198L15.7249 4.65522L16.301 4.70314C21.2853 5.18647 23.3135 7.21459 23.7968 12.199L23.8447 12.775L23.8801 13.3781C23.8853 13.4802 23.8905 13.5844 23.8937 13.6896L23.9114 14.3313L23.9166 15L23.9114 15.6688L23.8937 16.3104L23.8801 16.6219L23.8447 17.225L23.7968 17.8011C23.3135 22.7854 21.2853 24.8136 16.301 25.2969L15.7249 25.3448L15.1218 25.3802C15.0197 25.3854 14.9155 25.3906 14.8103 25.3938L14.1687 25.4115L13.4999 25.4167L12.8312 25.4115L12.1895 25.3938L11.878 25.3802L11.2749 25.3448L10.6989 25.2969C5.7145 24.8136 3.68638 22.7854 3.20304 17.8011L3.15513 17.225L3.11971 16.6219C3.11464 16.5181 3.11013 16.4143 3.10617 16.3104L3.08846 15.6688C3.08534 15.45 3.08325 15.2271 3.08325 15L3.08429 14.6625L3.08846 14.3313L3.10617 13.6896L3.11971 13.3781L3.15513 12.775L3.20304 12.199C3.68638 7.21459 5.7145 5.18647 10.6989 4.70314L11.2749 4.65522L11.878 4.6198C11.9801 4.61459 12.0843 4.60939 12.1895 4.60626L12.8312 4.58855C13.0499 4.58543 13.2728 4.58334 13.4999 4.58334ZM15.278 11.1386C15.0827 10.9433 14.8178 10.8336 14.5416 10.8336C14.2654 10.8336 14.0005 10.9433 13.8051 11.1386L10.6801 14.2636L10.5937 14.3615C10.4382 14.5619 10.3612 14.8122 10.3771 15.0653C10.393 15.3185 10.5008 15.5571 10.6801 15.7365L13.8051 18.8615L13.903 18.9479C14.1035 19.1034 14.3537 19.1804 14.6069 19.1645C14.86 19.1486 15.0987 19.0408 15.278 18.8615L15.3645 18.7636C15.52 18.5631 15.597 18.3129 15.5811 18.0597C15.5651 17.8066 15.4574 17.5679 15.278 17.3886L12.8905 15L15.278 12.6115L15.3645 12.5136C15.52 12.3131 15.597 12.0629 15.5811 11.8097C15.5651 11.5566 15.4574 11.3179 15.278 11.1386Z" fill="#0FA4F8"/>
</g>
<defs>
<filter id="filter0_d_334_273" x="-2" y="-1.5" width="35" height="35" filterUnits="userSpaceOnUse" color-interpolation-filters="sRGB">
<feFlood flood-opacity="0" result="BackgroundImageFix"/>
<feColorMatrix in="SourceAlpha" type="matrix" values="0 0 0 0 0 0 0 0 0 0 0 0 0 0 0 0 0 0 127 0" result="hardAlpha"/>
<feOffset dx="1" dy="1"/>
<feGaussianBlur stdDeviation="1.5"/>
<feColorMatrix type="matrix" values="0 0 0 0 0 0 0 0 0 0 0 0 0 0 0 0 0 0 0.25 0"/>
<feBlend mode="normal" in2="BackgroundImageFix" result="effect1_dropShadow_334_273"/>
<feBlend mode="normal" in="SourceGraphic" in2="effect1_dropShadow_334_273" result="shape"/>
</filter>
<clipPath id="clip0_334_273">
<rect width="40" height="40" fill="white" transform="translate(1 2.5)"/>
</clipPath>
</defs>
</svg>
