<svg width="40" height="40" viewBox="0 0 32 31" fill="none" xmlns="http://www.w3.org/2000/svg">
<g id="Frame" clip-path="url(#clip0_334_285)" filter="url(#filter0_d_334_285)">
    <path id="Vector" d="M17.8056 5.1041C17.5785 5.1041 17.3556 5.10618 17.1368 5.1093L16.4952 5.12701L16.1837 5.14055L15.5806 5.17597L15.0045 5.22389C10.0202 5.70722 7.99204 7.73535 7.50871 12.7197L7.46079 13.2958L7.42537 13.8989C7.42017 14.001 7.41496 14.1051 7.41183 14.2103L7.39412 14.852L7.38996 15.1833L7.38892 15.5208C7.38892 15.7478 7.391 15.9708 7.39412 16.1895L7.41183 16.8312L7.42537 17.1426L7.46079 17.7458L7.50871 18.3218C7.99204 23.3062 10.0202 25.3343 15.0045 25.8176L15.5806 25.8656L16.1837 25.901C16.2858 25.9062 16.39 25.9114 16.4952 25.9145L17.1368 25.9322L17.8056 25.9374L18.4743 25.9322L19.116 25.9145L19.4275 25.901L20.0306 25.8656L20.6066 25.8176C25.591 25.3343 27.6191 23.3062 28.1025 18.3218L28.1504 17.7458L28.1858 17.1426C28.191 17.0406 28.1962 16.9364 28.1993 16.8312L28.217 16.1895L28.2222 15.5208L28.217 14.852L28.1993 14.2103L28.1858 13.8989L28.1504 13.2958L28.1025 12.7197C27.6191 7.73535 25.591 5.70722 20.6066 5.22389L20.0306 5.17597L19.4275 5.14055C19.3237 5.13549 19.2198 5.13097 19.116 5.12701L18.4743 5.1093L18.1431 5.10514L17.8056 5.1041ZM16.0275 11.6593C16.2068 11.48 16.4455 11.3722 16.6986 11.3563C16.9518 11.3404 17.202 11.4174 17.4025 11.5728L17.5004 11.6593L20.6254 14.7843C20.8047 14.9637 20.9125 15.2023 20.9284 15.4555C20.9443 15.7086 20.8673 15.9589 20.7118 16.1593L20.6254 16.2572L17.5004 19.3822C17.3129 19.569 17.0614 19.6775 16.7968 19.6856C16.5323 19.6937 16.2746 19.6007 16.0761 19.4257C15.8776 19.2507 15.7532 19.0066 15.7281 18.7432C15.703 18.4797 15.7791 18.2166 15.941 18.0072L16.0275 17.9093L18.415 15.5208L16.0275 13.1322C15.8481 12.9529 15.7404 12.7142 15.7244 12.4611C15.7085 12.2079 15.7855 11.9576 15.941 11.7572L16.0275 11.6593Z" fill="#0812FF"/>
</g>
<defs>
    <filter id="filter0_d_334_285" x="-2" y="-1.5" width="35" height="35" filterUnits="userSpaceOnUse" color-interpolation-filters="sRGB">
        <feFlood flood-opacity="0" result="BackgroundImageFix"/>
        <feColorMatrix in="SourceAlpha" type="matrix" values="0 0 0 0 0 0 0 0 0 0 0 0 0 0 0 0 0 0 127 0" result="hardAlpha"/>
        <feOffset dx="1" dy="1"/>
        <feGaussianBlur stdDeviation="1.5"/>
        <feColorMatrix type="matrix" values="0 0 0 0 0 0 0 0 0 0 0 0 0 0 0 0 0 0 0.25 0"/>
        <feBlend mode="normal" in2="BackgroundImageFix" result="effect1_dropShadow_334_285"/>
        <feBlend mode="normal" in="SourceGraphic" in2="effect1_dropShadow_334_285" result="shape"/>
    </filter>
    <clipPath id="clip0_334_285">
        <rect width="40" height="40" fill="white" transform="translate(6 2.5)"/>
    </clipPath>
</defs>
</svg>
